<svg width="651" height="339" viewBox="0 0 651 339" xmlns="http://www.w3.org/2000/svg"><rect x="0" y="0" width="651" height="339" fill="#fff"/><path fill="red" d="M172.3 111.7L165.1 111.7L165.1 107.7L184.3 107.7L184.3 111.7L177.1 111.7L177.1 131.0L172.3 131.0L172.3 111.7ZM192.7 131.3L192.7 131.3Q190.0 131.3 188.1 130.2Q186.2 129.0 185.1 127.0Q184.1 125.0 184.1 122.3L184.1 122.3Q184.1 119.6 185.1 117.6Q186.2 115.5 188.1 114.4Q190.0 113.3 192.7 113.3L192.7 113.3Q195.3 113.3 197.2 114.4Q199.2 115.5 200.2 117.6Q201.3 119.6 201.3 122.3L201.3 122.3Q201.3 125.0 200.2 127.0Q199.2 129.0 197.2 130.2Q195.3 131.3 192.7 131.3ZM192.7 127.5L192.7 127.5Q193.9 127.5 194.7 126.9Q195.5 126.2 195.9 125.0Q196.3 123.8 196.3 122.3L196.3 122.3Q196.3 120.7 195.9 119.5Q195.5 118.3 194.7 117.7Q193.9 117.0 192.7 117.0L192.7 117.0Q191.5 117.0 190.6 117.7Q189.8 118.3 189.4 119.5Q189.0 120.7 189.0 122.3L189.0 122.3Q189.0 123.8 189.4 125.0Q189.8 126.2 190.6 126.9Q191.5 127.5 192.7 127.5ZM209.3 137.5L204.4 137.5L204.4 113.5L209.2 113.5L209.2 116.4L209.4 116.4Q209.7 115.7 210.3 115.0Q210.9 114.3 211.9 113.8Q212.9 113.3 214.4 113.3L214.4 113.3Q216.3 113.3 217.9 114.3Q219.5 115.3 220.5 117.3Q221.4 119.2 221.4 122.2L221.4 122.2Q221.4 125.2 220.5 127.2Q219.6 129.2 217.9 130.2Q216.3 131.2 214.4 131.2L214.4 131.2Q212.9 131.2 212.0 130.8Q211.0 130.3 210.4 129.6Q209.7 128.9 209.4 128.2L209.4 128.2L209.3 128.2L209.3 137.5ZM209.1 122.2L209.1 122.2Q209.1 123.8 209.6 124.9Q210.0 126.1 210.8 126.7Q211.6 127.4 212.8 127.4L212.8 127.4Q214 127.4 214.8 126.7Q215.6 126.1 216.1 124.9Q216.5 123.7 216.5 122.2L216.5 122.2Q216.5 120.7 216.1 119.6Q215.6 118.4 214.8 117.8Q214.0 117.1 212.8 117.1L212.8 117.1Q211.6 117.1 210.8 117.7Q210.0 118.4 209.6 119.5Q209.1 120.7 209.1 122.2Z M249.5 114.4L244.8 114.4Q244.6 113.0 243.6 112.2Q242.6 111.5 240.8 111.5L240.8 111.5Q239.6 111.5 238.8 111.8Q237.9 112.1 237.5 112.7Q237.1 113.3 237.1 114.1L237.1 114.1Q237.0 114.7 237.3 115.2Q237.6 115.6 238.1 116.0Q238.6 116.3 239.3 116.5Q240.0 116.8 240.8 117.0L240.8 117.0L242.8 117.5Q244.4 117.8 245.6 118.4Q246.9 118.9 247.8 119.8Q248.8 120.6 249.3 121.7Q249.8 122.8 249.8 124.3L249.8 124.3Q249.8 126.4 248.7 128.0Q247.7 129.6 245.6 130.4Q243.6 131.3 240.8 131.3L240.8 131.3Q238.0 131.3 235.9 130.4Q233.8 129.6 232.6 127.9Q231.5 126.2 231.4 123.6L231.4 123.6L236.2 123.6Q236.3 124.8 236.8 125.6Q237.4 126.4 238.4 126.8Q239.5 127.2 240.7 127.2L240.7 127.2Q242.0 127.2 242.9 126.8Q243.8 126.4 244.3 125.8Q244.9 125.1 244.9 124.3L244.9 124.3Q244.9 123.5 244.4 123.0Q243.9 122.4 243.1 122.1Q242.2 121.7 240.9 121.4L240.9 121.4L238.4 120.7Q235.4 120.0 233.7 118.5Q232.0 117.0 232.0 114.4L232.0 114.4Q232.0 112.3 233.2 110.7Q234.3 109.1 236.3 108.2Q238.3 107.4 240.8 107.4L240.8 107.4Q243.4 107.4 245.4 108.2Q247.3 109.1 248.4 110.7Q249.5 112.3 249.5 114.4L249.5 114.4ZM257.9 120.9L257.9 120.9L257.9 131.0L253.0 131.0L253.0 107.7L257.7 107.7L257.7 116.6L257.9 116.6Q258.5 115.0 259.8 114.2Q261.2 113.3 263.1 113.3L263.1 113.3Q265.0 113.3 266.3 114.1Q267.7 114.8 268.4 116.3Q269.2 117.8 269.2 119.8L269.2 119.8L269.2 131.0L264.3 131.0L264.3 120.7Q264.4 119.1 263.5 118.2Q262.7 117.3 261.2 117.3L261.2 117.3Q260.2 117.3 259.5 117.7Q258.7 118.1 258.3 118.9Q257.9 119.7 257.9 120.9ZM281.0 131.3L281.0 131.3Q278.3 131.3 276.3 130.2Q274.4 129.1 273.3 127.1Q272.3 125.1 272.3 122.3L272.3 122.3Q272.3 119.6 273.3 117.6Q274.4 115.5 276.3 114.4Q278.2 113.3 280.8 113.3L280.8 113.3Q282.5 113.3 284.0 113.8Q285.5 114.4 286.6 115.5Q287.7 116.6 288.3 118.2Q289.0 119.9 289.0 122.1L289.0 122.1L289.0 123.5L274.2 123.5L274.2 120.5L284.4 120.5Q284.4 119.4 284.0 118.6Q283.5 117.8 282.7 117.3Q281.9 116.9 280.8 116.9L280.8 116.9Q279.7 116.9 278.9 117.4Q278.0 117.9 277.6 118.7Q277.1 119.6 277.1 120.6L277.1 120.6L277.1 123.5Q277.1 124.8 277.6 125.7Q278.0 126.7 278.9 127.2Q279.8 127.7 281.0 127.7L281.0 127.7Q281.8 127.7 282.5 127.5Q283.2 127.2 283.7 126.8Q284.1 126.3 284.4 125.7L284.4 125.7L288.9 126.0Q288.5 127.6 287.5 128.8Q286.4 130.0 284.8 130.6Q283.1 131.3 281.0 131.3ZM300.1 131.3L300.1 131.3Q297.4 131.3 295.4 130.2Q293.5 129.1 292.5 127.1Q291.4 125.1 291.4 122.3L291.4 122.3Q291.4 119.6 292.5 117.6Q293.5 115.5 295.4 114.4Q297.3 113.3 299.9 113.3L299.9 113.3Q301.6 113.3 303.1 113.8Q304.6 114.4 305.7 115.5Q306.8 116.6 307.5 118.2Q308.1 119.9 308.1 122.1L308.1 122.1L308.1 123.5L293.4 123.5L293.4 120.5L303.5 120.5Q303.5 119.4 303.1 118.6Q302.6 117.8 301.8 117.3Q301.0 116.9 300.0 116.9L300.0 116.9Q298.9 116.9 298.0 117.4Q297.2 117.9 296.7 118.7Q296.2 119.6 296.2 120.6L296.2 120.6L296.2 123.5Q296.2 124.8 296.7 125.7Q297.2 126.7 298.1 127.2Q298.9 127.7 300.2 127.7L300.2 127.7Q301.0 127.7 301.6 127.5Q302.3 127.2 302.8 126.8Q303.3 126.3 303.5 125.7L303.5 125.7L308.0 126.0Q307.6 127.6 306.6 128.8Q305.5 130.0 303.9 130.6Q302.2 131.3 300.1 131.3ZM310.0 113.5L320.5 113.5L320.5 117.1L310.0 117.1L310.0 113.5ZM312.4 126.2L312.4 109.3L317.3 109.3L317.3 125.6Q317.3 126.3 317.5 126.6Q317.7 127.0 318.0 127.1Q318.4 127.3 318.9 127.3L318.9 127.3Q319.2 127.3 319.6 127.2Q319.9 127.2 320.1 127.1L320.1 127.1L320.9 130.7Q320.5 130.8 319.8 131.0Q319.2 131.2 318.2 131.2L318.2 131.2Q316.5 131.3 315.2 130.7Q313.9 130.2 313.1 129.1Q312.4 127.9 312.4 126.2L312.4 126.2Z M351.6 115.2L346.6 115.2Q346.4 114.4 346.0 113.7Q345.5 113.1 344.9 112.6Q344.3 112.2 343.5 112.0Q342.7 111.7 341.7 111.7L341.7 111.7Q340.0 111.7 338.6 112.6Q337.3 113.5 336.5 115.2Q335.8 116.9 335.8 119.3L335.8 119.3Q335.8 121.7 336.5 123.4Q337.2 125.1 338.6 126.0Q340.0 126.9 341.8 126.9L341.8 126.9Q343.5 126.9 344.7 126.3Q345.8 125.7 346.5 124.6Q347.1 123.5 347.1 122.1L347.1 122.1L348.1 122.2L342.1 122.2L342.1 118.5L351.8 118.5L351.8 121.4Q351.8 124.5 350.5 126.7Q349.2 128.9 347.0 130.1Q344.7 131.3 341.8 131.3L341.8 131.3Q338.5 131.3 336.0 129.8Q333.5 128.4 332.2 125.7Q330.8 123.0 330.8 119.3L330.8 119.3Q330.8 116.5 331.6 114.3Q332.4 112.1 333.9 110.5Q335.4 109.0 337.4 108.2Q339.4 107.4 341.7 107.4L341.7 107.4Q343.6 107.4 345.4 107.9Q347.1 108.5 348.4 109.6Q349.7 110.6 350.5 112.0Q351.4 113.5 351.6 115.2L351.6 115.2ZM363.4 131.3L363.4 131.3Q360.7 131.3 358.8 130.2Q356.8 129.1 355.8 127.1Q354.7 125.1 354.7 122.3L354.7 122.3Q354.7 119.6 355.8 117.6Q356.8 115.5 358.7 114.4Q360.6 113.3 363.2 113.3L363.2 113.3Q364.9 113.3 366.4 113.8Q367.9 114.4 369.0 115.5Q370.2 116.6 370.8 118.2Q371.4 119.9 371.4 122.1L371.4 122.1L371.4 123.5L356.7 123.5L356.7 120.5L366.9 120.5Q366.9 119.4 366.4 118.6Q365.9 117.8 365.1 117.3Q364.3 116.9 363.3 116.9L363.3 116.9Q362.2 116.9 361.3 117.4Q360.5 117.9 360.0 118.7Q359.5 119.6 359.5 120.6L359.5 120.6L359.5 123.5Q359.5 124.8 360.0 125.7Q360.5 126.7 361.4 127.2Q362.3 127.7 363.5 127.7L363.5 127.7Q364.3 127.7 365.0 127.5Q365.6 127.2 366.1 126.8Q366.6 126.3 366.8 125.7L366.8 125.7L371.3 126.0Q371.0 127.6 369.9 128.8Q368.9 130.0 367.2 130.6Q365.6 131.3 363.4 131.3ZM379.4 120.9L379.4 120.9L379.4 131.0L374.6 131.0L374.6 113.5L379.2 113.5L379.2 116.6L379.4 116.6Q380.0 115.1 381.3 114.2Q382.7 113.3 384.6 113.3L384.6 113.3Q386.5 113.3 387.8 114.1Q389.2 114.9 389.9 116.3Q390.7 117.8 390.7 119.8L390.7 119.8L390.7 131.0L385.8 131.0L385.8 120.7Q385.8 119.1 385.0 118.2Q384.2 117.3 382.7 117.3L382.7 117.3Q381.7 117.3 381.0 117.7Q380.2 118.1 379.8 118.9Q379.4 119.7 379.4 120.9ZM402.4 131.3L402.4 131.3Q399.7 131.3 397.8 130.2Q395.9 129.1 394.8 127.1Q393.8 125.1 393.8 122.3L393.8 122.3Q393.8 119.6 394.8 117.6Q395.9 115.5 397.8 114.4Q399.7 113.3 402.2 113.3L402.2 113.3Q404.0 113.3 405.4 113.8Q406.9 114.4 408.1 115.5Q409.2 116.6 409.8 118.2Q410.4 119.9 410.4 122.1L410.4 122.1L410.4 123.5L395.7 123.5L395.7 120.5L405.9 120.5Q405.9 119.4 405.4 118.6Q405.0 117.8 404.2 117.3Q403.4 116.9 402.3 116.9L402.3 116.9Q401.2 116.9 400.4 117.4Q399.5 117.9 399.0 118.7Q398.6 119.6 398.5 120.6L398.5 120.6L398.5 123.5Q398.5 124.8 399.0 125.7Q399.5 126.7 400.4 127.2Q401.3 127.7 402.5 127.7L402.5 127.7Q403.3 127.7 404.0 127.5Q404.6 127.2 405.1 126.8Q405.6 126.3 405.9 125.7L405.9 125.7L410.3 126.0Q410.0 127.6 408.9 128.8Q407.9 130.0 406.2 130.6Q404.6 131.3 402.4 131.3ZM418.4 131.0L413.6 131.0L413.6 113.5L418.3 113.5L418.3 116.5L418.5 116.5Q418.9 114.9 420.1 114.1Q421.2 113.2 422.7 113.2L422.7 113.2Q423.0 113.2 423.4 113.3Q423.9 113.3 424.2 113.4L424.2 113.4L424.2 117.7Q423.8 117.6 423.2 117.5Q422.6 117.5 422.1 117.5L422.1 117.5Q421.1 117.5 420.2 117.9Q419.4 118.4 418.9 119.2Q418.4 120.0 418.4 121.1L418.4 121.1L418.4 131.0ZM431.2 131.3L431.2 131.3Q429.5 131.3 428.2 130.7Q426.9 130.1 426.1 129.0Q425.4 127.8 425.4 126.1L425.4 126.1Q425.4 124.6 425.9 123.6Q426.4 122.6 427.4 122.0Q428.3 121.4 429.4 121.1Q430.6 120.8 431.9 120.7L431.9 120.7Q433.4 120.5 434.4 120.4Q435.3 120.3 435.7 120.0Q436.1 119.7 436.1 119.1L436.1 119.1L436.1 119.1Q436.1 118.0 435.5 117.4Q434.8 116.8 433.6 116.8L433.6 116.8Q432.2 116.8 431.5 117.4Q430.7 118.0 430.5 118.8L430.5 118.8L426.0 118.5Q426.3 116.9 427.3 115.7Q428.3 114.5 429.9 113.9Q431.5 113.3 433.6 113.3L433.6 113.3Q435.0 113.3 436.4 113.6Q437.7 114.0 438.7 114.7Q439.8 115.4 440.4 116.5Q441.0 117.6 441.0 119.2L441.0 119.2L441.0 131.0L436.4 131.0L436.4 128.5L436.3 128.5Q435.8 129.3 435.1 130.0Q434.4 130.6 433.4 130.9Q432.5 131.3 431.2 131.3ZM432.5 127.9L432.5 127.9Q433.6 127.9 434.4 127.5Q435.2 127.1 435.7 126.4Q436.2 125.6 436.2 124.7L436.2 124.7L436.2 122.9Q436.0 123.0 435.6 123.1Q435.2 123.2 434.7 123.3Q434.2 123.4 433.7 123.5Q433.2 123.6 432.8 123.6L432.8 123.6Q432.0 123.8 431.3 124.0Q430.7 124.3 430.3 124.8Q430.0 125.2 430.0 125.9L430.0 125.9Q430.0 126.9 430.7 127.4Q431.4 127.9 432.5 127.9ZM443.5 113.5L454.0 113.5L454.0 117.1L443.5 117.1L443.5 113.5ZM445.9 126.2L445.9 109.3L450.7 109.3L450.7 125.6Q450.7 126.3 451.0 126.6Q451.2 127.0 451.5 127.1Q451.9 127.3 452.4 127.3L452.4 127.3Q452.7 127.3 453.1 127.2Q453.4 127.2 453.6 127.1L453.6 127.1L454.4 130.7Q454.0 130.8 453.3 131.0Q452.7 131.2 451.7 131.2L451.7 131.2Q450.0 131.3 448.7 130.7Q447.4 130.2 446.6 129.1Q445.9 127.9 445.9 126.2L445.9 126.2ZM464.9 131.3L464.9 131.3Q462.2 131.3 460.3 130.2Q458.4 129.0 457.3 127.0Q456.3 125.0 456.3 122.3L456.3 122.3Q456.3 119.6 457.3 117.6Q458.4 115.5 460.3 114.4Q462.2 113.3 464.9 113.3L464.9 113.3Q467.5 113.3 469.5 114.4Q471.4 115.5 472.4 117.6Q473.5 119.6 473.5 122.3L473.5 122.3Q473.5 125.0 472.4 127.0Q471.4 129.0 469.5 130.2Q467.5 131.3 464.9 131.3ZM464.9 127.5L464.9 127.5Q466.1 127.5 466.9 126.9Q467.7 126.2 468.1 125.0Q468.6 123.8 468.6 122.3L468.6 122.3Q468.6 120.7 468.1 119.5Q467.7 118.3 466.9 117.7Q466.1 117.0 464.9 117.0L464.9 117.0Q463.7 117.0 462.9 117.7Q462.0 118.3 461.6 119.5Q461.2 120.7 461.2 122.3L461.2 122.3Q461.2 123.8 461.6 125.0Q462.0 126.2 462.9 126.9Q463.7 127.5 464.9 127.5ZM481.5 131.0L476.6 131.0L476.6 113.5L481.3 113.5L481.3 116.5L481.5 116.5Q482.0 114.9 483.1 114.1Q484.2 113.2 485.7 113.2L485.7 113.2Q486.1 113.2 486.5 113.3Q486.9 113.3 487.2 113.4L487.2 113.4L487.2 117.7Q486.9 117.6 486.3 117.5Q485.7 117.5 485.2 117.5L485.2 117.5Q484.1 117.5 483.3 117.9Q482.4 118.4 482.0 119.2Q481.5 120.0 481.5 121.1L481.5 121.1L481.5 131.0Z "/><path fill="blue" d="M303.5 162.5L314.3 162.5L314.3 166.1L303.5 166.1L303.5 162.5ZM310.8 180.0L306.0 180.0L306.0 161.2Q306.0 159.3 306.8 158.1Q307.5 156.8 308.8 156.2Q310.1 155.6 311.7 155.6L311.7 155.6Q312.9 155.6 313.8 155.8Q314.7 155.9 315.2 156.1L315.2 156.1L314.3 159.7Q314.0 159.6 313.6 159.5Q313.2 159.5 312.8 159.5L312.8 159.5Q311.7 159.5 311.3 159.9Q310.8 160.4 310.8 161.3L310.8 161.3L310.8 180.0ZM324.5 180.3L324.5 180.3Q321.9 180.3 320.0 179.2Q318.0 178.0 317.0 176.0Q316.0 174.0 316.0 171.3L316.0 171.3Q316.0 168.6 317.0 166.6Q318.0 164.5 320.0 163.4Q321.9 162.3 324.5 162.3L324.5 162.3Q327.2 162.3 329.1 163.4Q331.0 164.5 332.1 166.6Q333.1 168.6 333.1 171.3L333.1 171.3Q333.1 174.0 332.1 176.0Q331.0 178.0 329.1 179.2Q327.2 180.3 324.5 180.3ZM324.6 176.5L324.6 176.5Q325.8 176.5 326.6 175.9Q327.4 175.2 327.8 174.0Q328.2 172.8 328.2 171.3L328.2 171.3Q328.2 169.7 327.8 168.5Q327.4 167.3 326.6 166.7Q325.8 166.0 324.6 166.0L324.6 166.0Q323.4 166.0 322.5 166.7Q321.7 167.3 321.3 168.5Q320.9 169.7 320.9 171.3L320.9 171.3Q320.9 172.8 321.3 174.0Q321.7 175.2 322.5 175.9Q323.4 176.5 324.6 176.5ZM341.1 180.0L336.3 180.0L336.3 162.5L341.0 162.5L341.0 165.5L341.2 165.5Q341.6 163.9 342.8 163.1Q343.9 162.2 345.4 162.2L345.4 162.2Q345.7 162.2 346.1 162.3Q346.6 162.3 346.9 162.4L346.9 162.4L346.9 166.7Q346.5 166.6 345.9 166.5Q345.3 166.5 344.8 166.5L344.8 166.5Q343.8 166.5 342.9 166.9Q342.1 167.4 341.6 168.2Q341.1 169.0 341.1 170.1L341.1 170.1L341.1 180.0Z "/><path fill="black" d="M257.6 213.8L257.6 213.8L252.6 213.8Q252.4 212.9 252.0 212.1Q251.6 211.3 250.9 210.8Q250.3 210.3 249.4 210.0Q248.6 209.7 247.6 209.7L247.6 209.7Q245.8 209.7 244.4 210.6Q243.1 211.5 242.3 213.2Q241.6 214.9 241.6 217.3L241.6 217.3Q241.6 219.8 242.3 221.5Q243.1 223.2 244.4 224.1Q245.8 224.9 247.5 224.9L247.5 224.9Q248.5 224.9 249.4 224.7Q250.2 224.4 250.9 223.9Q251.5 223.4 252.0 222.7Q252.4 221.9 252.6 221.0L252.6 221.0L257.6 221.0Q257.4 222.6 256.6 224.1Q255.8 225.6 254.5 226.8Q253.3 227.9 251.5 228.6Q249.7 229.3 247.5 229.3L247.5 229.3Q244.3 229.3 241.9 227.9Q239.4 226.5 238.0 223.8Q236.6 221.1 236.6 217.3L236.6 217.3Q236.6 213.5 238.0 210.8Q239.5 208.2 241.9 206.8Q244.4 205.4 247.5 205.4L247.5 205.4Q249.5 205.4 251.2 205.9Q252.9 206.5 254.3 207.6Q255.6 208.7 256.5 210.2Q257.3 211.8 257.6 213.8ZM270.5 211.0L264.7 229.0L259.4 229.0L267.4 205.7L273.8 205.7L281.8 229.0L276.5 229.0L270.7 211.0L270.5 211.0ZM264.3 223.6L264.3 219.8L276.8 219.8L276.8 223.6L264.3 223.6ZM301.0 229.0L284.5 229.0L284.5 225.4L292.7 217.7Q293.8 216.7 294.5 215.9Q295.2 215.1 295.6 214.3Q296.0 213.5 296.0 212.6L296.0 212.6Q296.0 211.6 295.5 210.8Q295.1 210.1 294.3 209.7Q293.4 209.3 292.4 209.3L292.4 209.3Q291.4 209.3 290.6 209.7Q289.8 210.1 289.3 210.9Q288.9 211.7 288.9 212.8L288.9 212.8L284.2 212.8Q284.2 210.6 285.3 208.9Q286.3 207.2 288.2 206.3Q290.0 205.4 292.5 205.4L292.5 205.4Q295.0 205.4 296.8 206.2Q298.7 207.1 299.7 208.7Q300.7 210.2 300.7 212.2L300.7 212.2Q300.7 213.6 300.2 214.8Q299.7 216.1 298.4 217.7Q297.1 219.3 294.7 221.4L294.7 221.4L291.3 224.8L291.3 224.9L301.0 224.9L301.0 229.0Z M317.1 229.0L312.2 229.0L312.2 205.7L321.4 205.7Q324.0 205.7 325.9 206.6Q327.7 207.6 328.7 209.3Q329.7 211.0 329.7 213.3L329.7 213.3Q329.7 215.6 328.7 217.3Q327.7 218.9 325.8 219.8Q323.9 220.7 321.2 220.7L321.2 220.7L315.1 220.7L315.1 216.7L320.4 216.7Q321.8 216.7 322.8 216.4Q323.7 216.0 324.2 215.2Q324.6 214.4 324.6 213.3L324.6 213.3Q324.6 212.1 324.2 211.3Q323.7 210.5 322.8 210.1Q321.8 209.7 320.4 209.7L320.4 209.7L317.1 209.7L317.1 229.0ZM319.4 218.4L324.7 218.4L330.5 229.0L325.1 229.0L319.4 218.4ZM340.7 229.3L340.7 229.3Q338.0 229.3 336.1 228.2Q334.2 227.1 333.1 225.1Q332.1 223.1 332.1 220.3L332.1 220.3Q332.1 217.6 333.1 215.6Q334.2 213.5 336.1 212.4Q338.0 211.3 340.5 211.3L340.5 211.3Q342.3 211.3 343.8 211.8Q345.3 212.4 346.4 213.5Q347.5 214.6 348.1 216.2Q348.7 217.9 348.7 220.1L348.7 220.1L348.7 221.5L334.0 221.5L334.0 218.5L344.2 218.5Q344.2 217.4 343.7 216.6Q343.3 215.8 342.5 215.3Q341.7 214.9 340.6 214.9L340.6 214.9Q339.5 214.9 338.7 215.4Q337.8 215.9 337.4 216.7Q336.9 217.6 336.9 218.6L336.9 218.6L336.9 221.5Q336.9 222.8 337.3 223.7Q337.8 224.7 338.7 225.2Q339.6 225.7 340.8 225.7L340.8 225.7Q341.6 225.7 342.3 225.5Q343.0 225.2 343.4 224.8Q343.9 224.3 344.2 223.7L344.2 223.7L348.6 224.0Q348.3 225.6 347.3 226.8Q346.2 228.0 344.6 228.6Q342.9 229.3 340.7 229.3ZM356.7 235.5L351.9 235.5L351.9 211.5L356.7 211.5L356.7 214.4L356.9 214.4Q357.2 213.7 357.8 213.0Q358.4 212.3 359.4 211.8Q360.4 211.3 361.9 211.3L361.9 211.3Q363.8 211.3 365.4 212.3Q367.0 213.3 368.0 215.3Q368.9 217.2 368.9 220.2L368.9 220.2Q368.9 223.2 368.0 225.2Q367.1 227.2 365.4 228.2Q363.8 229.2 361.9 229.2L361.9 229.2Q360.4 229.2 359.5 228.8Q358.5 228.3 357.9 227.6Q357.2 226.9 356.9 226.2L356.9 226.2L356.7 226.2L356.7 235.5ZM356.6 220.2L356.6 220.2Q356.6 221.8 357.1 222.9Q357.5 224.1 358.3 224.7Q359.1 225.4 360.3 225.4L360.3 225.4Q361.5 225.4 362.3 224.7Q363.1 224.1 363.6 222.9Q364.0 221.7 364.0 220.2L364.0 220.2Q364.0 218.7 363.6 217.6Q363.1 216.4 362.3 215.8Q361.5 215.1 360.3 215.1L360.3 215.1Q359.1 215.1 358.3 215.7Q357.5 216.4 357.1 217.5Q356.6 218.7 356.6 220.2ZM380.0 229.3L380.0 229.3Q377.4 229.3 375.5 228.2Q373.5 227.0 372.5 225.0Q371.4 223.0 371.4 220.3L371.4 220.3Q371.4 217.6 372.5 215.6Q373.5 213.5 375.5 212.4Q377.4 211.3 380.0 211.3L380.0 211.3Q382.7 211.3 384.6 212.4Q386.5 213.5 387.6 215.6Q388.6 217.6 388.6 220.3L388.6 220.3Q388.6 223.0 387.6 225.0Q386.5 227.0 384.6 228.2Q382.7 229.3 380.0 229.3ZM380.1 225.5L380.1 225.5Q381.3 225.5 382.1 224.9Q382.9 224.2 383.3 223.0Q383.7 221.8 383.7 220.3L383.7 220.3Q383.7 218.7 383.3 217.5Q382.9 216.3 382.1 215.7Q381.3 215.0 380.1 215.0L380.1 215.0Q378.8 215.0 378.0 215.7Q377.2 216.3 376.8 217.5Q376.4 218.7 376.4 220.3L376.4 220.3Q376.4 221.8 376.8 223.0Q377.2 224.2 378.0 224.9Q378.8 225.5 380.1 225.5ZM396.6 229.0L391.8 229.0L391.8 211.5L396.5 211.5L396.5 214.5L396.7 214.5Q397.1 212.9 398.3 212.1Q399.4 211.2 400.9 211.2L400.9 211.2Q401.2 211.2 401.6 211.3Q402.1 211.3 402.4 211.4L402.4 211.4L402.4 215.7Q402.0 215.6 401.4 215.5Q400.8 215.5 400.3 215.5L400.3 215.5Q399.3 215.5 398.4 215.9Q397.6 216.4 397.1 217.2Q396.6 218.0 396.6 219.1L396.6 219.1L396.6 229.0ZM404.5 211.5L415.0 211.5L415.0 215.1L404.5 215.1L404.5 211.5ZM406.9 224.2L406.9 207.3L411.7 207.3L411.7 223.6Q411.7 224.3 411.9 224.6Q412.1 225.0 412.5 225.1Q412.9 225.3 413.4 225.3L413.4 225.3Q413.7 225.3 414.1 225.2Q414.4 225.2 414.6 225.1L414.6 225.1L415.3 228.7Q415.0 228.8 414.3 229.0Q413.7 229.2 412.7 229.2L412.7 229.2Q411.0 229.3 409.7 228.7Q408.3 228.2 407.6 227.1Q406.9 225.9 406.9 224.2L406.9 224.2Z "/></svg>